<svg width="312" height="180" viewBox="0 0 312 180" fill="none" xmlns="http://www.w3.org/2000/svg">
<path d="M19.2 52.25C22.9 63.25 27.1 75.35 31.8 88.55C36.5 101.65 40.8 113 44.7 122.6C47.6 113.3 51.6 102.15 56.7 89.15C61.8 76.05 66.55 64.25 70.95 53.75C72.25 50.65 74.45 49.1 77.55 49.1C80.45 49.1 82.65 49.7 84.15 50.9C85.65 52 86.4 53.95 86.4 56.75C86.4 57.85 86.25 58.8 85.95 59.6C85.65 60.4 85.2 61.45 84.6 62.75C81.5 68.85 78.4 75.9 75.3 83.9C72.2 91.8 68.4 101.85 63.9 114.05C64.1 113.55 62.7 117.3 59.7 125.3L54.75 138.2C54.15 139.8 53.15 141.05 51.75 141.95C50.45 142.75 48.95 143.15 47.25 143.15C45.55 143.15 43.65 142.75 41.55 141.95C39.55 141.05 38.1 140.15 37.2 139.25C33.8 132.75 29.45 123.35 24.15 111.05C18.95 98.75 14.45 87.4 10.65 77L8.4 70.85C6.9 66.65 5.8 63.45 5.1 61.25C4.4 58.95 4.05 57.1 4.05 55.7C4.05 53.7 5.15 52.1 7.35 50.9C9.65 49.7 11.85 49.1 13.95 49.1C15.05 49.1 16.1 49.35 17.1 49.85C18.1 50.35 18.8 51.15 19.2 52.25ZM158.378 135.8C158.378 138 157.178 139.85 154.778 141.35C152.478 142.85 150.328 143.6 148.328 143.6C144.528 143.6 141.478 143.15 139.178 142.25C136.978 141.25 134.928 139.45 133.028 136.85C130.428 139.15 126.878 140.9 122.378 142.1C117.878 143.2 113.728 143.75 109.928 143.75C103.728 143.75 98.6277 142.1 94.6277 138.8C90.6277 135.4 88.6277 130.45 88.6277 123.95C88.6277 121.15 89.3777 118.6 90.8777 116.3C92.3777 113.9 94.4277 111.8 97.0277 110C99.9277 108.1 103.228 106.65 106.928 105.65C110.628 104.55 114.478 104 118.478 104C120.578 104 123.078 104.4 125.978 105.2C128.878 106 131.128 106.85 132.728 107.75V105.35C132.728 99.95 131.428 96.25 128.828 94.25C126.228 92.15 122.028 91.1 116.228 91.1C114.528 91.1 112.828 91.45 111.128 92.15C109.528 92.85 107.678 93.8 105.578 95C102.778 96.5 100.128 97.25 97.6277 97.25C96.7277 97.25 95.8777 96.65 95.0777 95.45C94.2777 94.15 93.8777 93 93.8777 92C93.8777 89.1 95.2277 86.6 97.9277 84.5C100.728 82.4 104.028 80.85 107.828 79.85C111.628 78.75 115.028 78.2 118.028 78.2C121.028 78.2 124.478 78.8 128.378 80C132.278 81.1 135.478 82.65 137.978 84.65C140.978 87.25 143.278 90.3 144.878 93.8C146.578 97.2 147.428 100.95 147.428 105.05C147.428 106.35 147.328 108.3 147.128 110.9C146.928 113.7 146.828 116.1 146.828 118.1C146.828 119 146.728 120.35 146.528 122.15C146.328 124.35 146.228 126.1 146.228 127.4C146.228 128.6 146.678 129.65 147.578 130.55C148.478 131.35 149.528 131.75 150.728 131.75L154.928 131.6C156.028 131.6 156.878 132 157.478 132.8C158.078 133.6 158.378 134.6 158.378 135.8ZM110.078 131.9C114.378 131.9 117.978 131.45 120.878 130.55C123.778 129.65 127.278 128 131.378 125.6C131.778 123.9 132.028 121.65 132.128 118.85C126.628 116.25 122.078 114.95 118.478 114.95C114.378 114.95 110.728 115.7 107.528 117.2C104.328 118.7 102.728 121.35 102.728 125.15C102.728 127.05 103.528 128.65 105.128 129.95C106.728 131.25 108.378 131.9 110.078 131.9ZM183.382 173.6C179.582 173.6 176.382 172.95 173.782 171.65C171.282 170.45 169.382 168.95 168.082 167.15C166.882 165.45 166.282 163.95 166.282 162.65C166.282 160.95 166.882 159.6 168.082 158.6C169.282 157.7 170.732 157.25 172.432 157.25C173.432 157.25 174.382 157.55 175.282 158.15C176.182 158.75 176.682 159.1 176.782 159.2C177.482 159.7 178.182 160.1 178.882 160.4C179.582 160.8 180.332 161 181.132 161C183.332 161 185.132 159.55 186.532 156.65C187.932 153.75 189.332 149.05 190.732 142.55C186.232 135.95 182.482 129.35 179.482 122.75L176.032 114.8C175.532 113.6 174.132 110.5 171.832 105.5C169.632 100.4 167.432 95.9 165.232 92C163.832 89.2 163.132 87.3 163.132 86.3C163.132 83.8 163.982 81.95 165.682 80.75C167.482 79.55 169.532 78.95 171.832 78.95C173.432 78.95 174.632 79.3 175.432 80C176.332 80.6 177.332 81.75 178.432 83.45C181.332 88.25 184.482 95.45 187.882 105.05C189.882 110.55 191.482 114.75 192.682 117.65C193.882 120.45 195.332 123.3 197.032 126.2C198.732 122.3 200.882 115.65 203.482 106.25C205.082 100.85 206.382 96.55 207.382 93.35C208.482 90.05 209.682 87.05 210.982 84.35C211.882 82.55 212.982 81.1 214.282 80C215.682 78.9 217.232 78.35 218.932 78.35C220.632 78.35 222.432 79 224.332 80.3C226.332 81.5 227.332 82.95 227.332 84.65C227.332 85.65 226.982 86.85 226.282 88.25C222.382 97.25 218.932 105.75 215.932 113.75C213.032 121.65 210.232 130.35 207.532 139.85C205.932 145.15 204.232 150.2 202.432 155C200.732 159.8 199.532 162.75 198.832 163.85C196.832 166.65 194.582 168.95 192.082 170.75C189.582 172.65 186.682 173.6 183.382 173.6ZM243.795 77.9C250.395 77.9 253.695 82.25 253.695 90.95C253.695 92.05 253.595 94.5 253.395 98.3C253.195 102.7 253.095 106.15 253.095 108.65C253.095 115.65 254.045 121.3 255.945 125.6C256.645 127 257.895 128.1 259.695 128.9C261.595 129.7 263.195 130.1 264.495 130.1C266.495 130.1 268.145 129.85 269.445 129.35C270.745 128.85 271.945 128.1 273.045 127.1C274.245 126.1 275.395 125 276.495 123.8C278.395 121.7 279.595 119.3 280.095 116.6C280.695 113.8 281.045 110.1 281.145 105.5C281.145 102.6 281.295 99.8 281.595 97.1C282.195 92.7 282.495 88.6 282.495 84.8C282.495 82.7 283.045 80.95 284.145 79.55C285.345 78.05 287.045 77.3 289.245 77.3C290.345 77.3 291.645 77.7 293.145 78.5C294.745 79.2 295.795 80 296.295 80.9C296.995 82.1 297.345 83.75 297.345 85.85C297.345 87.15 297.195 88.35 296.895 89.45C296.395 90.95 296.145 92.85 296.145 95.15C296.145 96.35 296.245 98.35 296.445 101.15C296.745 103.25 296.895 105.4 296.895 107.6C296.895 114.3 297.395 119.25 298.395 122.45C299.495 125.85 300.995 128.85 302.895 131.45C304.895 133.55 306.245 135.1 306.945 136.1C307.645 137 307.995 137.8 307.995 138.5C307.995 139.7 307.395 140.85 306.195 141.95C304.995 143.05 303.745 143.6 302.445 143.6C298.745 143.6 295.495 142.35 292.695 139.85C289.995 137.25 287.995 133.95 286.695 129.95C285.595 131.25 284.145 132.85 282.345 134.75C280.545 136.65 278.845 138.2 277.245 139.4C273.345 142.2 268.345 143.6 262.245 143.6C259.745 143.6 256.995 142.85 253.995 141.35C251.095 139.85 248.445 137.9 246.045 135.5C243.645 133 241.995 130.35 241.095 127.55C240.995 127.35 240.695 126.55 240.195 125.15C239.795 123.75 239.595 121.65 239.595 118.85L239.445 94.85C239.445 93.45 239.095 91.25 238.395 88.25C237.795 86.25 237.495 84.75 237.495 83.75C237.495 82.05 238.045 80.65 239.145 79.55C240.345 78.45 241.895 77.9 243.795 77.9Z" fill="#13C0FF"/>
<path d="M94 65.5H144" stroke="#13C0FF" stroke-width="10"/>
</svg>
